<?xml version="1.0" encoding="utf-8"?>
<svg width="100" height="100" viewBox="0 0 100 100" fill="none" xmlns="http://www.w3.org/2000/svg">
<path d="M49.975 3C45.1625 3 41.9813 6.35241 40.175 9.36401C38.3375 12.419 37.3625 15.9945 37.2312 18.2996C36.975 22.8852 37.6687 26.9007 39.975 29.8007C42.375 32.8247 45.975 33.9835 49.975 33.9835C54.0313 33.9835 57.6187 32.6884 60.0062 29.6644C62.3125 26.7395 63.0563 22.7551 62.7563 18.2687C62.6125 16.0874 61.625 12.5305 59.7938 9.46315C58 6.45776 54.8125 3 49.975 3ZM43.475 18.6405C43.5375 17.3825 44.2 14.7737 45.5437 12.5305C46.9187 10.2501 48.45 9.1967 49.9812 9.1967C51.475 9.1967 53.0125 10.2625 54.4187 12.6111C55.775 14.9039 56.45 17.5251 56.525 18.6714C56.7687 22.3895 56.0625 24.6079 55.0875 25.8472C54.1938 26.975 52.6813 27.7868 49.975 27.7868C47.1625 27.7868 45.7125 27.0122 44.8875 25.965C43.95 24.7876 43.25 22.5939 43.4687 18.6405H43.475ZM18.75 40.2297C15.4348 40.2297 12.2554 41.5355 9.91116 43.8597C7.56696 46.1839 6.25 49.3362 6.25 52.6231V89.8033H3.125C2.2962 89.8033 1.50134 90.1297 0.915292 90.7108C0.329241 91.2918 0 92.0799 0 92.9017C0 93.7234 0.329241 94.5115 0.915292 95.0925C1.50134 95.6736 2.2962 96 3.125 96H96.875C97.7038 96 98.4987 95.6736 99.0847 95.0925C99.6708 94.5115 100 93.7234 100 92.9017C100 92.0799 99.6708 91.2918 99.0847 90.7108C98.4987 90.1297 97.7038 89.8033 96.875 89.8033H93.75V52.6231C93.75 49.3362 92.433 46.1839 90.0888 43.8597C87.7446 41.5355 84.5652 40.2297 81.25 40.2297H18.75ZM87.5 89.8033H12.5V65.7477L22.1563 74.2992C23.3822 75.3862 24.8124 76.2226 26.365 76.7606C27.9175 77.2986 29.5619 77.5275 31.2039 77.4343C32.8459 77.341 34.4531 76.9274 35.9336 76.2172C37.414 75.5069 38.7385 74.514 39.8313 73.2953L45.3313 67.1606C45.9176 66.5064 46.6371 65.9827 47.4424 65.6241C48.2476 65.2655 49.1204 65.0801 50.0031 65.0801C50.8859 65.0801 51.7586 65.2655 52.5639 65.6241C53.3691 65.9827 54.0886 66.5064 54.675 67.1606L60.1687 73.2953C61.2611 74.5154 62.5857 75.5096 64.0665 76.2209C65.5472 76.9323 67.1551 77.3467 68.7978 77.4406C70.4405 77.5344 72.0858 77.3058 73.6392 76.7678C75.1926 76.2298 76.6235 75.3929 77.85 74.3054L87.5 65.7477V89.8033ZM87.5 57.4318L73.6812 69.6826C73.0683 70.2261 72.3532 70.6444 71.5769 70.9134C70.8006 71.1824 69.9784 71.2968 69.1574 71.2502C68.3365 71.2036 67.5328 70.9968 66.7926 70.6416C66.0524 70.2865 65.3901 69.7901 64.8438 69.1807L59.3437 63.046C58.171 61.7375 56.732 60.6902 55.1215 59.973C53.511 59.2558 51.7655 58.885 50 58.885C48.2345 58.885 46.489 59.2558 44.8785 59.973C43.268 60.6902 41.829 61.7375 40.6563 63.046L35.1562 69.1807C34.6099 69.7901 33.9476 70.2865 33.2074 70.6416C32.4672 70.9968 31.6636 71.2036 30.8426 71.2502C30.0216 71.2968 29.1994 71.1824 28.4231 70.9134C27.6468 70.6444 26.9317 70.2261 26.3187 69.6826L12.5 57.4318V52.6231C12.5 50.9797 13.1585 49.4035 14.3306 48.2414C15.5027 47.0793 17.0924 46.4264 18.75 46.4264H81.25C82.9076 46.4264 84.4973 47.0793 85.6694 48.2414C86.8415 49.4035 87.5 50.9797 87.5 52.6231V57.4318Z" fill="#F0F3F9"/>
</svg>
