<?xml version="1.0" encoding="utf-8"?>
<svg width="100" height="100" viewBox="0 0 100 100" fill="none" xmlns="http://www.w3.org/2000/svg">
<path d="M89.9609 73.0857L72.0313 49.9998H81.25C81.8337 49.9981 82.4053 49.8329 82.9 49.5229C83.3946 49.213 83.7926 48.7707 84.0488 48.2462C84.3049 47.7216 84.4091 47.1359 84.3493 46.5552C84.2896 45.9745 84.0685 45.4222 83.7109 44.9607L52.4609 4.33574C52.1686 3.96223 51.7951 3.66016 51.3687 3.45242C50.9424 3.24468 50.4743 3.13672 50 3.13672C49.5257 3.13672 49.0576 3.24468 48.6313 3.45242C48.2049 3.66016 47.8314 3.96223 47.5391 4.33574L16.2891 44.9607C15.9315 45.4222 15.7104 45.9745 15.6507 46.5552C15.591 47.1359 15.6951 47.7216 15.9513 48.2462C16.2074 48.7707 16.6054 49.213 17.1 49.5229C17.5947 49.8329 18.1663 49.9981 18.75 49.9998H27.9688L10.0391 73.0857C9.68153 73.5472 9.46037 74.0995 9.40067 74.6802C9.34096 75.2609 9.44509 75.8466 9.70126 76.3712C9.95742 76.8957 10.3554 77.338 10.85 77.6479C11.3447 77.9579 11.9163 78.1231 12.5 78.1248H46.875V93.7498C46.875 94.5786 47.2042 95.3735 47.7903 95.9595C48.3763 96.5456 49.1712 96.8748 50 96.8748C50.8288 96.8748 51.6237 96.5456 52.2097 95.9595C52.7958 95.3735 53.125 94.5786 53.125 93.7498V78.1248H87.5C88.0837 78.1231 88.6553 77.9579 89.15 77.6479C89.6446 77.338 90.0426 76.8957 90.2988 76.3712C90.5549 75.8466 90.6591 75.2609 90.5993 74.6802C90.5396 74.0995 90.3185 73.5472 89.9609 73.0857ZM18.9063 71.8748L36.8359 48.7889C37.1935 48.3274 37.4146 47.7751 37.4743 47.1944C37.534 46.6137 37.4299 46.028 37.1738 45.5034C36.9176 44.9789 36.5196 44.5366 36.025 44.2267C35.5303 43.9167 34.9587 43.7515 34.375 43.7498H25.0781L50 11.367L74.9219 43.7498H65.625C65.0413 43.7515 64.4697 43.9167 63.975 44.2267C63.4804 44.5366 63.0824 44.9789 62.8263 45.5034C62.5701 46.028 62.466 46.6137 62.5257 47.1944C62.5854 47.7751 62.8065 48.3274 63.1641 48.7889L81.0938 71.8748H18.9063Z" fill="#F0F3F9"/>
</svg>
