<svg xmlns="http://www.w3.org/2000/svg" version="1.1" xmlns:xlink="http://www.w3.org/1999/xlink" xmlns:svgjs="http://svgjs.com/svgjs" width="1000" height="1000"><rect width="1000" height="1000" rx="200" ry="200" fill="#ffffff"></rect><g transform="matrix(4.166666666666667,0,0,4.166666666666667,99.4110094706217,100.50191879272461)"><svg xmlns="http://www.w3.org/2000/svg" version="1.1" xmlns:xlink="http://www.w3.org/1999/xlink" xmlns:svgjs="http://svgjs.com/svgjs" width="192" height="192"><svg width="192" height="192" viewBox="0 0 192 192" fill="none" xmlns="http://www.w3.org/2000/svg">
<g clip-path="url(#clip0_101_44)">
<path fill-rule="evenodd" clip-rule="evenodd" d="M96.1859 123.542C125.905 123.542 149.997 83.5299 149.997 53.8109C149.997 24.092 125.905 0 96.1859 0C66.467 0 42.375 24.092 42.375 53.8109C42.375 83.5299 66.467 123.542 96.1859 123.542ZM127.294 79.1881L142.578 63.9045C142.923 63.5361 143.158 63.0776 143.254 62.5818C143.349 62.0857 143.303 61.5731 143.119 61.1025C142.924 60.6389 142.597 60.2434 142.177 59.9658C141.758 59.6881 141.266 59.5407 140.763 59.5423H128.027V46.806C128.01 38.0287 124.516 29.6156 118.309 23.4091C112.103 17.2026 103.69 13.7084 94.9123 13.6915C94.2366 13.6915 93.5887 13.9599 93.1111 14.4376C92.6335 14.9153 92.365 15.5632 92.365 16.2388C92.365 16.9144 92.6335 17.5623 93.1111 18.04C93.5887 18.5177 94.2366 18.7861 94.9123 18.7861C102.341 18.7945 109.463 21.7493 114.716 27.0022C119.969 32.255 122.924 39.3772 122.932 46.806V59.5423H110.196C109.693 59.5407 109.201 59.6881 108.782 59.9658C108.362 60.2434 108.035 60.6389 107.84 61.1025C107.656 61.5731 107.609 62.0857 107.705 62.5818C107.801 63.0776 108.035 63.5361 108.381 63.9045L123.665 79.1881C124.151 79.659 124.802 79.922 125.479 79.922C126.157 79.922 126.808 79.659 127.294 79.1881Z" fill="#000616"></path>
<path d="M78.4423 141.47L93.7259 126.186C94.2128 125.715 94.8636 125.452 95.5408 125.452C96.2181 125.452 96.8689 125.715 97.3558 126.186L112.639 141.47C112.985 141.838 113.219 142.297 113.315 142.793C113.411 143.289 113.364 143.801 113.181 144.272C112.986 144.736 112.658 145.131 112.239 145.409C111.819 145.686 111.328 145.834 110.824 145.832H98.0881V158.568C98.0967 165.997 101.052 173.119 106.304 178.372C111.557 183.625 118.679 186.58 126.108 186.588C126.784 186.588 127.432 186.857 127.909 187.334C128.387 187.812 128.655 188.46 128.655 189.136C128.655 189.811 128.387 190.459 127.909 190.937C127.432 191.414 126.784 191.683 126.108 191.683C117.331 191.666 108.918 188.172 102.711 181.965C96.5047 175.759 93.0105 167.346 92.9936 158.568V145.832H80.2573C79.7545 145.834 79.2622 145.686 78.8429 145.409C78.4239 145.131 78.0959 144.736 77.901 144.272C77.7176 143.801 77.6712 143.289 77.767 142.793C77.8625 142.297 78.0969 141.838 78.4423 141.47Z" fill="#000616"></path>
</g>
<defs>
<clipPath id="clip0_101_44">
<rect width="107.622" height="192" fill="white" transform="translate(42.375)"></rect>
</clipPath>
</defs>
</svg></svg></g></svg>