<svg width="338" height="603" viewBox="0 0 338 603" fill="none" xmlns="http://www.w3.org/2000/svg">
<path d="M338 169C338 262.336 262.336 388 169 388C75.6639 388 0 262.336 0 169C0 75.6639 75.6639 0 169 0C262.336 0 338 75.6639 338 169Z" fill="#000616"/>
<path d="M314.7 200.7L266.7 248.7C265.171 250.179 263.127 251.005 261 251.005C258.873 251.005 256.829 250.179 255.3 248.7L207.3 200.7C206.215 199.543 205.479 198.103 205.178 196.546C204.877 194.988 205.024 193.378 205.6 191.9C206.212 190.444 207.241 189.202 208.558 188.33C209.875 187.458 211.421 186.995 213 187H253V147C252.974 123.669 243.694 101.301 227.196 84.8038C210.699 68.3064 188.331 59.0265 165 59C162.878 59 160.843 58.1571 159.343 56.6569C157.843 55.1566 157 53.1217 157 51C157 48.8783 157.843 46.8434 159.343 45.3431C160.843 43.8429 162.878 43 165 43C192.566 43.0529 218.988 54.0269 238.481 73.5193C257.973 93.0116 268.947 119.434 269 147V187H309C310.579 186.995 312.125 187.458 313.442 188.33C314.759 189.202 315.788 190.444 316.4 191.9C316.976 193.378 317.123 194.988 316.822 196.546C316.521 198.103 315.785 199.543 314.7 200.7Z" fill="#F0F3F9"/>
<path d="M113.274 444.304L161.274 396.304C162.803 394.825 164.847 393.999 166.974 393.999C169.101 393.999 171.145 394.825 172.674 396.304L220.674 444.304C221.76 445.461 222.495 446.901 222.796 448.458C223.097 450.016 222.951 451.626 222.374 453.104C221.762 454.56 220.733 455.802 219.416 456.674C218.099 457.546 216.554 458.009 214.974 458.004H174.974V498.004C175.001 521.335 184.281 543.703 200.778 560.2C217.276 576.698 239.643 585.977 262.974 586.004C265.096 586.004 267.131 586.847 268.631 588.347C270.131 589.847 270.974 591.882 270.974 594.004C270.974 596.126 270.131 598.16 268.631 599.661C267.131 601.161 265.096 602.004 262.974 602.004C235.408 601.951 208.986 590.977 189.494 571.485C170.001 551.992 159.027 525.57 158.974 498.004V458.004H118.974C117.395 458.009 115.849 457.546 114.532 456.674C113.216 455.802 112.186 454.56 111.574 453.104C110.998 451.626 110.852 450.016 111.153 448.458C111.453 446.901 112.189 445.461 113.274 444.304Z" fill="#000616"/>
</svg>
